<?xml version="1.0" encoding="UTF-8"?>
<svg width="600" height="900" xmlns="http://www.w3.org/2000/svg">
  <!-- 页面边框 -->
  <rect width="600" height="900" fill="white" stroke="#333" stroke-width="2"/>
  
  <!-- 导航栏 -->
  <rect x="20" y="20" width="560" height="50" fill="none" stroke="#333" stroke-width="1"/>
  <text x="40" y="40" font-family="Arial" font-size="12">logo</text>
  <text x="300" y="40" font-family="Arial" font-size="12" text-anchor="middle">导航菜单</text>
  <text x="520" y="40" font-family="Arial" font-size="12">主题切换</text>
  
  <!-- 页面标题 -->
  <rect x="20" y="90" width="560" height="60" fill="none" stroke="#333" stroke-width="1"/>
  <text x="300" y="125" font-family="Arial" font-size="14" text-anchor="middle">关于我们标题</text>
  
  <!-- 项目介绍 -->
  <rect x="20" y="170" width="560" height="80" fill="none" stroke="#333" stroke-width="1"/>
  <text x="300" y="215" font-family="Arial" font-size="12" text-anchor="middle">项目介绍内容</text>
  
  <!-- 开发者信息 -->
  <rect x="20" y="270" width="560" height="100" fill="none" stroke="#333" stroke-width="1"/>
  <text x="300" y="325" font-family="Arial" font-size="12" text-anchor="middle">开发者信息卡片</text>
  
  <!-- 技术栈 -->
  <rect x="20" y="390" width="560" height="80" fill="none" stroke="#333" stroke-width="1"/>
  <text x="300" y="435" font-family="Arial" font-size="12" text-anchor="middle">技术栈展示</text>
  
  <!-- 位置信息 -->
  <rect x="20" y="490" width="560" height="200" fill="none" stroke="#333" stroke-width="1"/>
  <text x="300" y="520" font-family="Arial" font-size="12" text-anchor="middle">位置信息</text>
  
  <!-- 地址信息 -->
  <rect x="40" y="540" width="250" height="80" fill="none" stroke="#666" stroke-width="1"/>
  <text x="165" y="585" font-family="Arial" font-size="11" text-anchor="middle">地址信息</text>
  
  <!-- 地图区域 -->
  <rect x="310" y="540" width="250" height="120" fill="none" stroke="#666" stroke-width="1"/>
  <text x="435" y="605" font-family="Arial" font-size="11" text-anchor="middle">地图</text>
  
  <!-- 项目统计 -->
  <rect x="20" y="710" width="560" height="80" fill="none" stroke="#333" stroke-width="1"/>
  <text x="300" y="755" font-family="Arial" font-size="12" text-anchor="middle">项目统计数据</text>
  
  <!-- 页脚 -->
  <rect x="20" y="810" width="560" height="50" fill="none" stroke="#333" stroke-width="1"/>
  <text x="300" y="840" font-family="Arial" font-size="12" text-anchor="middle">页脚</text>
  
  <!-- 标题 -->
  <text x="300" y="890" font-family="Arial" font-size="12" font-weight="bold" text-anchor="middle">关于我们页面布局</text>
</svg>
