<?xml version="1.0" encoding="UTF-8"?>
<svg width="600" height="700" xmlns="http://www.w3.org/2000/svg">
  <!-- 页面边框 -->
  <rect width="600" height="700" fill="white" stroke="#333" stroke-width="2"/>
  
  <!-- 导航栏 -->
  <rect x="20" y="20" width="560" height="50" fill="none" stroke="#333" stroke-width="1"/>
  <text x="40" y="40" font-family="Arial" font-size="12">logo</text>
  <text x="300" y="40" font-family="Arial" font-size="12" text-anchor="middle">导航菜单</text>
  <text x="520" y="40" font-family="Arial" font-size="12">用户菜单</text>
  
  <!-- 页面标题 -->
  <rect x="20" y="90" width="560" height="60" fill="none" stroke="#333" stroke-width="1"/>
  <text x="300" y="125" font-family="Arial" font-size="14" text-anchor="middle">我的收藏标题</text>
  
  <!-- 统计信息 -->
  <rect x="20" y="170" width="560" height="50" fill="none" stroke="#333" stroke-width="1"/>
  <text x="300" y="200" font-family="Arial" font-size="12" text-anchor="middle">收藏统计数据</text>
  
  <!-- 搜索区域 -->
  <rect x="20" y="240" width="560" height="40" fill="none" stroke="#333" stroke-width="1"/>
  <text x="300" y="265" font-family="Arial" font-size="12" text-anchor="middle">搜索收藏</text>
  
  <!-- 收藏网格 -->
  <rect x="20" y="300" width="560" height="300" fill="none" stroke="#333" stroke-width="1"/>
  <text x="300" y="330" font-family="Arial" font-size="12" text-anchor="middle">收藏工具网格</text>
  
  <!-- 收藏卡片示例 -->
  <rect x="40" y="350" width="160" height="100" fill="none" stroke="#666" stroke-width="1" stroke-dasharray="3,3"/>
  <text x="120" y="400" font-family="Arial" font-size="10" text-anchor="middle">收藏卡片</text>
  
  <rect x="220" y="350" width="160" height="100" fill="none" stroke="#666" stroke-width="1" stroke-dasharray="3,3"/>
  <text x="300" y="400" font-family="Arial" font-size="10" text-anchor="middle">收藏卡片</text>
  
  <rect x="400" y="350" width="160" height="100" fill="none" stroke="#666" stroke-width="1" stroke-dasharray="3,3"/>
  <text x="480" y="400" font-family="Arial" font-size="10" text-anchor="middle">收藏卡片</text>
  
  <!-- 空状态区域 -->
  <rect x="150" y="480" width="300" height="80" fill="none" stroke="#666" stroke-width="1" stroke-dasharray="5,5"/>
  <text x="300" y="520" font-family="Arial" font-size="11" text-anchor="middle">空收藏提示</text>
  <text x="300" y="540" font-family="Arial" font-size="10" text-anchor="middle">引导按钮</text>
  
  <!-- 页脚 -->
  <rect x="20" y="620" width="560" height="50" fill="none" stroke="#333" stroke-width="1"/>
  <text x="300" y="650" font-family="Arial" font-size="12" text-anchor="middle">页脚</text>
  
  <!-- 标题 -->
  <text x="300" y="690" font-family="Arial" font-size="12" font-weight="bold" text-anchor="middle">收藏页面布局</text>
</svg>
