<?xml version="1.0" encoding="UTF-8"?>
<svg width="600" height="800" xmlns="http://www.w3.org/2000/svg">
  <!-- 页面边框 -->
  <rect width="600" height="800" fill="white" stroke="#333" stroke-width="2"/>
  
  <!-- 导航栏 -->
  <rect x="20" y="20" width="560" height="50" fill="none" stroke="#333" stroke-width="1"/>
  <text x="40" y="40" font-family="Arial" font-size="12">logo</text>
  <text x="300" y="40" font-family="Arial" font-size="12" text-anchor="middle">导航菜单</text>
  <text x="520" y="40" font-family="Arial" font-size="12">主题切换</text>
  
  <!-- 主内容区域 -->
  <rect x="20" y="90" width="560" height="650" fill="none" stroke="#333" stroke-width="1"/>
  
  <!-- 注册表单容器 -->
  <rect x="150" y="130" width="300" height="450" fill="none" stroke="#333" stroke-width="2"/>
  <text x="300" y="160" font-family="Arial" font-size="14" text-anchor="middle">用户注册表单</text>
  
  <!-- 用户名输入框 -->
  <rect x="170" y="180" width="260" height="30" fill="none" stroke="#666" stroke-width="1"/>
  <text x="180" y="200" font-family="Arial" font-size="11">用户名输入框</text>
  
  <!-- 邮箱输入框 -->
  <rect x="170" y="230" width="260" height="30" fill="none" stroke="#666" stroke-width="1"/>
  <text x="180" y="250" font-family="Arial" font-size="11">邮箱输入框</text>
  
  <!-- 密码输入框 -->
  <rect x="170" y="280" width="260" height="30" fill="none" stroke="#666" stroke-width="1"/>
  <text x="180" y="300" font-family="Arial" font-size="11">密码输入框</text>
  
  <!-- 确认密码输入框 -->
  <rect x="170" y="330" width="260" height="30" fill="none" stroke="#666" stroke-width="1"/>
  <text x="180" y="350" font-family="Arial" font-size="11">确认密码输入框</text>
  
  <!-- 猫咪验证码区域 -->
  <rect x="170" y="380" width="260" height="80" fill="none" stroke="#666" stroke-width="1"/>
  <text x="300" y="405" font-family="Arial" font-size="11" text-anchor="middle">猫咪验证码</text>
  <text x="300" y="425" font-family="Arial" font-size="10" text-anchor="middle">拖拽食物给小猫咪</text>
  <text x="300" y="445" font-family="Arial" font-size="10" text-anchor="middle">验证区域</text>
  
  <!-- 用户协议 -->
  <rect x="170" y="480" width="260" height="30" fill="none" stroke="#666" stroke-width="1" stroke-dasharray="3,3"/>
  <text x="300" y="500" font-family="Arial" font-size="10" text-anchor="middle">☑ 同意用户协议和隐私政策</text>
  
  <!-- 注册按钮 -->
  <rect x="170" y="530" width="260" height="40" fill="none" stroke="#333" stroke-width="1"/>
  <text x="300" y="555" font-family="Arial" font-size="12" text-anchor="middle">注册按钮</text>
  
  <!-- 登录链接 -->
  <rect x="170" y="590" width="260" height="30" fill="none" stroke="#666" stroke-width="1" stroke-dasharray="3,3"/>
  <text x="300" y="610" font-family="Arial" font-size="11" text-anchor="middle">已有账户？立即登录</text>
  
  <!-- 社交注册选项 -->
  <rect x="170" y="640" width="260" height="60" fill="none" stroke="#666" stroke-width="1" stroke-dasharray="5,5"/>
  <text x="300" y="660" font-family="Arial" font-size="10" text-anchor="middle">或使用以下方式注册</text>
  <text x="300" y="680" font-family="Arial" font-size="10" text-anchor="middle">第三方注册按钮</text>
  
  <!-- 页脚 -->
  <rect x="20" y="750" width="560" height="30" fill="none" stroke="#333" stroke-width="1"/>
  <text x="300" y="770" font-family="Arial" font-size="12" text-anchor="middle">页脚</text>
  
  <!-- 标题 -->
  <text x="300" y="790" font-family="Arial" font-size="12" font-weight="bold" text-anchor="middle">注册页面布局</text>
</svg>
